<?xml version="1.0" standalone="no"?>
<!DOCTYPE svg PUBLIC "-//W3C//DTD SVG 20010904//EN"
 "http://www.w3.org/TR/2001/REC-SVG-20010904/DTD/svg10.dtd">
<svg version="1.0" xmlns="http://www.w3.org/2000/svg"
 width="150.000000pt" height="150.000000pt" viewBox="0 0 150.000000 150.000000"
 preserveAspectRatio="xMidYMid meet">

<g transform="translate(0.000000,150.000000) scale(0.100000,-0.100000)"
fill="#000000" stroke="none">
<path d="M632 1194 c-102 -27 -209 -110 -265 -207 -82 -139 -69 -344 30 -474
l35 -46 -83 -83 c-46 -46 -80 -87 -76 -91 4 -4 45 31 91 76 l84 84 38 -31 c53
-42 116 -68 197 -82 113 -20 244 12 331 82 l38 31 84 -84 c46 -45 87 -80 91
-76 4 4 -30 45 -76 91 l-83 83 35 46 c99 130 112 335 30 474 -34 58 -108 132
-166 166 -92 54 -226 71 -335 41z m108 -33 c0 -32 -6 -35 -81 -46 -42 -5 -46
-4 -58 21 -6 15 -10 27 -9 29 12 8 80 23 111 24 35 1 37 -1 37 -28z m121 18
c43 -15 41 -12 29 -43 -9 -24 -13 -26 -47 -21 -82 13 -83 14 -83 45 0 27 3 30
34 30 18 0 48 -5 67 -11z m157 -82 l22 -21 -21 -22 -20 -22 -49 32 c-54 34
-54 34 -40 71 l10 27 38 -23 c20 -12 47 -31 60 -42z m-431 26 c9 -26 6 -30
-38 -59 l-48 -32 -20 22 -21 22 22 20 c32 28 71 53 85 53 6 1 15 -11 20 -26z
m300 -42 c28 -13 60 -33 72 -45 l21 -22 -115 -114 -115 -115 -115 115 c-110
110 -114 115 -97 133 66 74 236 97 349 48z m-435 -115 c-33 -51 -36 -53 -63
-43 -27 11 -27 11 -12 41 8 17 27 46 40 64 l25 33 23 -21 22 -21 -35 -53z
m655 27 c26 -45 24 -56 -12 -66 -16 -4 -27 5 -51 43 l-31 48 20 21 c25 25 37
17 74 -46z m-386 -237 c-8 -9 -29 -16 -48 -16 -47 0 -94 -22 -125 -59 -15 -17
-36 -31 -47 -31 -11 0 -26 -9 -34 -21 -14 -20 -16 -18 -33 28 -38 99 -15 253
49 321 l21 23 115 -115 c99 -99 113 -117 102 -130z m340 151 c29 -68 32 -181
6 -249 -10 -27 -22 -48 -25 -48 -15 0 -32 42 -26 65 4 18 2 25 -9 25 -18 0
-30 27 -17 35 6 4 10 19 10 35 0 50 -70 66 -85 20 -9 -27 -56 -23 -79 7 l-19
25 89 89 88 89 22 -21 c12 -12 32 -44 45 -72z m-656 -51 c-11 -71 -14 -76 -46
-76 -33 0 -35 10 -18 89 l10 49 30 -10 c29 -10 30 -13 24 -52z m754 14 c17
-81 15 -90 -19 -90 -24 0 -31 5 -35 28 -3 15 -10 42 -14 60 -7 25 -6 34 7 42
36 21 50 12 61 -40z m-340 -84 c9 -11 6 -17 -14 -30 -23 -15 -26 -15 -31 -1
-14 36 21 60 45 31z m160 -4 c5 -10 6 -24 2 -31 -7 -10 -12 -10 -30 0 -21 14
-27 30 -14 42 12 13 32 7 42 -11z m-584 -49 c3 -16 10 -43 15 -61 7 -27 5 -34
-10 -42 -35 -19 -46 -11 -58 41 -19 79 -17 89 18 89 24 0 31 -5 35 -27z m555
-8 l25 -25 -105 -1 c-58 -1 -97 -3 -86 -6 10 -3 29 -16 41 -31 17 -20 27 -24
49 -18 15 4 30 16 35 28 l8 22 5 -22 c4 -14 19 -24 46 -31 69 -19 72 -70 7
-124 -44 -37 -65 -41 -65 -11 0 8 -4 14 -10 14 -6 0 -7 -18 -3 -46 6 -46 6
-46 -23 -42 -22 2 -30 10 -38 36 -9 33 -26 44 -26 17 0 -12 -14 -15 -69 -15
-64 0 -69 1 -64 20 3 11 1 20 -5 20 -12 0 -22 -24 -22 -55 0 -12 -7 -25 -15
-29 -22 -8 -45 21 -45 59 0 25 -4 32 -17 31 -28 -2 -49 66 -34 114 19 63 59
84 163 88 62 3 99 10 125 23 46 24 88 19 123 -16z m217 -8 c-3 -24 -11 -55
-16 -70 -10 -25 -13 -26 -36 -15 -24 11 -26 16 -20 52 11 71 14 76 47 76 30 0
31 0 25 -43z m-657 -107 c0 -19 -5 -30 -14 -30 -21 0 -27 27 -10 45 21 21 24
19 24 -15z m609 -39 c-10 -20 -29 -49 -42 -64 -23 -27 -24 -27 -41 -8 -17 18
-16 21 5 63 33 65 36 68 69 55 l28 -11 -19 -35z m-660 -1 l30 -45 -21 -23 -22
-22 -23 27 c-25 31 -56 83 -51 87 12 11 44 25 50 23 4 -1 20 -22 37 -47z m61
-14 c0 -11 -19 -15 -25 -6 -3 5 1 10 9 10 9 0 16 -2 16 -4z m17 -93 c9 -25 22
-43 33 -46 22 -6 28 -27 8 -27 -24 1 -108 60 -108 76 0 13 33 45 44 41 5 -2
16 -22 23 -44z m476 -20 c-50 -42 -84 -57 -94 -41 -15 22 -5 58 15 58 7 0 23
11 36 25 l24 25 23 -22 23 -22 -27 -23z m-443 17 c0 -11 -2 -20 -4 -20 -2 0
-6 9 -9 20 -3 11 -1 20 4 20 5 0 9 -9 9 -20z m210 -20 c0 -11 -40 -11 -85 0
-25 6 -20 8 28 9 32 0 57 -3 57 -9z m40 0 c0 -5 -2 -10 -4 -10 -3 0 -8 5 -11
10 -3 6 -1 10 4 10 6 0 11 -4 11 -10z m-80 -56 c0 -23 -5 -34 -15 -34 -27 0
-115 22 -120 30 -10 16 57 45 97 42 36 -4 38 -6 38 -38z m133 27 c17 -1 27 -6
27 -16 0 -18 -29 -31 -93 -40 l-47 -7 0 36 0 37 43 -5 c23 -2 54 -5 70 -5z"/>
<path d="M930 606 c-13 -35 -14 -33 15 -33 21 0 25 3 19 21 -11 36 -23 41 -34
12z"/>
</g>
</svg>
