<svg version="1.1" id="Layer_1" xmlns="http://www.w3.org/2000/svg" xmlns:xlink="http://www.w3.org/1999/xlink" x="0px" y="0px"
	 width="100%" viewBox="0 0 864 864" enable-background="new 0 0 864 864" xml:space="preserve">
<path fill="#000000" opacity="1.000000" stroke="none" 
	d="
M268.531342,1.000003 
	C264.680389,3.815063 260.372742,6.648728 256.038208,9.440637 
	C250.112518,13.257429 250.360931,18.380394 256.726379,21.591892 
	C259.698242,23.091242 262.765503,24.409214 265.829834,25.714903 
	C268.160034,26.707798 270.590027,27.759096 271.986847,29.837828 
	C275.749542,35.437302 281.381744,37.538574 287.543793,38.848438 
	C292.579895,39.918968 297.615540,40.992092 302.654572,42.048779 
	C304.493561,42.434410 306.205231,42.962891 306.985718,45.557972 
	C187.155380,89.451004 103.513725,170.498260 59.916782,290.757050 
	C31.301548,369.689911 29.069153,450.409637 52.306740,531.196289 
	C100.008286,697.033203 238.807877,799.797729 384.817596,817.488464 
	C487.427521,829.920959 581.684937,806.458313 665.990967,746.486511 
	C750.402893,686.439270 801.861572,604.137329 825.193542,503.368073 
	C825.829590,504.066284 826.217407,504.290131 826.238586,504.544434 
	C827.025085,514.003357 831.675293,519.524414 841.561401,520.220215 
	C844.021790,520.393433 845.236755,522.865906 846.546814,524.816772 
	C851.233765,531.796997 851.238464,531.769470 858.974915,528.763916 
	C861.016418,527.970703 862.952087,527.054565 864.750977,525.231812 
	C865.000000,638.333374 865.000000,751.666687 865.000000,865.000000 
	C851.907349,865.000000 838.922363,865.000000 825.592590,864.807983 
	C824.298828,861.270386 820.910828,863.372559 818.897339,861.688477 
	C813.349182,857.048279 801.444641,858.009766 796.235046,862.968384 
	C794.768616,864.364014 796.774597,864.315674 797.000000,865.000000 
	C531.739441,865.000000 266.478851,865.000000 1.000000,865.000000 
	C1.000000,598.979126 1.000000,332.958221 1.191663,66.706207 
	C1.822858,67.334381 2.262390,68.193680 2.873074,69.387573 
	C6.528933,65.785172 10.733088,65.832260 15.027087,66.765205 
	C19.456739,67.727615 22.406261,66.010147 24.431879,62.129837 
	C26.907892,57.386730 28.956064,52.509064 30.060892,47.239971 
	C31.052706,42.509850 33.599895,38.718227 37.385174,35.690125 
	C42.724030,31.419203 48.878136,29.216167 55.489662,27.784832 
	C60.746113,26.646862 66.515511,26.626060 70.511551,21.995979 
	C71.868347,20.423908 72.909355,18.882278 70.834938,17.396927 
	C65.507370,13.582185 65.240685,8.421570 66.871735,2.656676 
	C65.082176,2.048122 63.541088,1.524061 62.000000,1.000000 
	C130.687561,1.000000 199.375122,1.000000 268.531342,1.000003 
z"/>
<path fill="#000000" opacity="1.000000" stroke="none" 
	d="
M865.000000,323.531342 
	C861.141296,321.931366 859.647278,317.757233 856.816284,314.768860 
	C855.911743,313.814056 855.301208,312.583130 854.539429,311.490143 
	C852.506653,308.573639 849.855103,306.418671 846.170532,307.236053 
	C842.688660,308.008392 841.461975,311.171539 840.517761,314.267303 
	C839.620239,317.210022 840.156799,320.673584 837.429565,322.931000 
	C828.912537,321.071930 826.570190,323.055389 827.004944,331.948486 
	C827.175110,335.431061 827.844849,338.887360 828.074402,342.369659 
	C828.186523,344.069244 828.764771,346.028870 826.516846,347.786804 
	C825.207764,342.924561 823.825806,338.393951 822.772278,333.788177 
	C809.506409,275.790344 784.269348,223.528702 747.664795,176.690887 
	C718.338928,139.166504 683.188721,108.176323 642.614380,83.343254 
	C616.697693,67.481277 589.297913,54.735569 560.397827,45.268883 
	C555.500732,43.664776 550.645020,41.933712 545.743408,40.344025 
	C543.683350,39.675907 542.226746,38.584518 541.895752,36.345749 
	C542.737366,34.868153 543.969421,35.625755 545.037292,35.729221 
	C551.255432,36.331718 557.284546,36.060001 563.045410,33.116943 
	C566.773743,31.212221 570.955444,30.064137 575.092224,30.146540 
	C594.635193,30.535828 613.714600,24.877937 633.293579,25.868984 
	C636.471863,26.029865 639.554443,24.969027 642.542969,23.919769 
	C648.108826,21.965656 648.976929,20.195999 647.303650,14.661137 
	C646.184387,10.958520 648.436279,7.273971 652.849487,5.613724 
	C655.000244,4.804617 657.450317,4.810045 659.861694,2.889971 
	C656.744873,1.251730 653.455200,2.541688 650.353271,1.177064 
	C703.354248,1.000000 756.708435,1.000000 810.288208,1.191336 
	C808.506897,2.333956 808.772278,3.733034 809.406494,5.526811 
	C810.602966,8.910816 810.795776,12.696046 809.554016,15.844901 
	C807.769531,20.369562 809.609985,23.210846 812.548157,25.890108 
	C814.872864,28.009935 817.164307,30.677507 819.974915,31.661879 
	C830.397522,35.312241 838.152893,41.472549 842.666809,51.794315 
	C843.861023,54.525120 846.399353,56.962914 850.139832,56.808899 
	C855.360107,56.593956 860.263550,57.925194 865.000000,60.000000 
	C865.000000,147.687561 865.000000,235.375122 865.000000,323.531342 
z"/>
<path fill="#000000" opacity="1.000000" stroke="none" 
	d="
M173.861328,637.298218 
	C169.530685,635.810547 172.476578,633.644836 173.201813,632.194336 
	C182.960815,612.675964 192.832260,593.213501 202.733765,573.766724 
	C226.239197,527.601624 249.760605,481.444519 273.302765,435.298065 
	C312.970306,357.543121 352.568878,279.752777 392.406281,202.084900 
	C401.615631,184.130112 417.110321,174.977432 437.075256,173.881470 
	C447.875580,173.288574 458.735168,173.835510 469.565826,173.695908 
	C472.659332,173.656021 474.302368,174.838089 475.707245,177.602310 
	C508.533173,242.189850 541.462036,306.725006 574.355225,371.278381 
	C607.774719,436.864532 641.189270,502.453125 674.577942,568.054932 
	C685.381165,589.281006 696.097290,610.551453 706.846558,631.804932 
	C707.583069,633.261353 708.602844,634.634338 708.495361,636.895020 
	C595.913025,636.895020 483.455597,636.895020 370.054993,636.895020 
	C372.339630,631.939514 374.226990,627.568298 376.341980,623.310120 
	C382.786957,610.334106 389.626038,597.542297 395.668427,584.383484 
	C398.109802,579.066833 401.317749,577.640381 406.811310,577.671631 
	C448.804932,577.910767 490.800110,577.879089 532.794800,577.930908 
	C556.291809,577.959961 579.788879,578.001648 603.285889,578.007507 
	C610.542603,578.009338 611.325623,576.687073 607.990479,570.143066 
	C565.038208,485.864410 522.074280,401.591644 479.120422,317.313782 
	C467.548218,294.608429 456.001862,271.889862 444.436371,249.181076 
	C443.387421,247.121490 442.536804,244.919220 440.553558,243.365387 
	C438.144989,244.438202 437.614227,246.882278 436.603943,248.862778 
	C408.903473,303.164886 381.281036,357.506836 353.578461,411.807892 
	C322.848083,472.043732 292.050110,532.245056 261.285004,592.463135 
	C254.390137,605.958740 247.430756,619.422485 240.679214,632.989563 
	C239.044540,636.274292 236.914307,637.455383 233.263474,637.425110 
	C213.599670,637.261902 193.933929,637.332214 173.861328,637.298218 
z"/>
<path fill="#000000" opacity="1.000000" stroke="none" 
	d="
M437.000000,484.247253 
	C428.505249,484.239227 420.509613,484.295471 412.516113,484.191406 
	C409.102173,484.147003 407.431763,485.174347 407.242798,489.005157 
	C406.877899,496.402252 399.577789,500.787109 392.824402,498.052551 
	C390.333527,497.043976 390.840027,494.805939 390.833160,492.908081 
	C390.775299,476.918701 390.779694,460.929108 390.778412,444.939575 
	C390.777802,437.611023 391.042877,430.272644 390.737701,422.957458 
	C390.538757,418.188416 392.145569,416.590240 396.988953,416.634003 
	C420.471832,416.846130 443.957550,416.755371 467.442261,416.745056 
	C480.009033,416.739532 488.565643,408.159943 488.678101,395.518311 
	C488.795624,382.306122 480.457947,373.433258 467.637512,373.385834 
	C445.818695,373.305145 423.999329,373.368652 402.180206,373.344635 
	C393.381348,373.334930 387.888855,364.949768 391.109772,356.637787 
	C391.819275,354.806854 393.198120,354.701172 394.714752,354.700867 
	C420.864227,354.695892 447.022888,354.289459 473.159668,354.868073 
	C488.388519,355.205170 500.588898,367.771210 503.783661,385.657349 
	C506.839264,402.764343 503.238770,418.136444 489.058838,429.629089 
	C486.381561,431.798981 483.142944,433.276276 479.454071,435.500885 
	C487.991211,455.947113 496.582977,476.524139 505.219879,497.209229 
	C492.945984,500.381592 487.340637,498.021393 483.073944,488.014282 
	C481.789246,485.001221 479.980499,484.165344 476.973663,484.188324 
	C463.816406,484.288940 450.657990,484.240784 437.000000,484.247253 
M407.343292,461.397705 
	C407.443176,471.127533 406.130280,470.664551 416.395782,470.670197 
	C434.047241,470.679840 451.698761,470.689575 469.350098,470.643738 
	C471.108917,470.639160 472.998169,471.157196 475.188263,469.563507 
	C470.750305,459.149780 466.297180,448.634644 461.778595,438.147644 
	C460.755005,435.772095 458.472229,435.493042 456.277222,435.486359 
	C441.793121,435.442078 427.308807,435.448334 412.824585,435.463470 
	C409.222748,435.467224 407.275513,437.078400 407.335205,440.940491 
	C407.435577,447.433197 407.350098,453.928772 407.343292,461.397705 
z"/>
<path fill="#000000" opacity="1.000000" stroke="none" 
	d="
M446.278259,563.887817 
	C445.226166,566.846130 448.968140,571.671753 442.628204,571.574402 
	C434.025574,571.442322 431.492035,569.629700 431.509033,563.202881 
	C431.552124,546.910339 431.568604,530.617126 431.745514,514.325867 
	C431.770996,511.980499 430.357819,508.715942 434.420227,507.856659 
	C438.514252,506.990692 443.803375,509.047791 445.210297,512.165344 
	C446.193481,514.344055 446.227844,516.669678 446.227692,519.012512 
	C446.226593,533.810547 446.255829,548.608521 446.278259,563.887817 
z"/>
<path fill="#000000" opacity="1.000000" stroke="none" 
	d="
M347.393311,683.857178 
	C351.543243,690.852905 351.611328,697.567139 346.977448,703.809631 
	C342.940979,709.247375 337.342896,712.058655 330.417267,710.715820 
	C322.852386,709.249084 317.987305,704.674927 316.136017,697.087952 
	C314.410126,690.014771 318.138031,682.074097 324.825470,678.552673 
	C332.637573,674.439026 340.846130,676.271301 347.393311,683.857178 
M341.199341,702.754211 
	C342.919952,701.106384 343.970459,699.094238 344.780884,696.854370 
	C346.416107,692.334961 344.807434,688.592896 341.861664,685.454529 
	C338.891632,682.290283 335.098816,680.596680 330.596436,681.829346 
	C325.716370,683.165283 322.348297,686.142334 321.399841,691.264832 
	C320.470795,696.282532 321.929443,700.578979 326.230042,703.500427 
	C331.010773,706.748169 335.892578,706.580261 341.199341,702.754211 
z"/>
<path fill="#000000" opacity="1.000000" stroke="none" 
	d="
M512.329102,693.133667 
	C513.147888,701.807800 517.334717,705.632812 525.663879,705.710693 
	C528.988098,705.741821 532.313232,705.719055 535.636292,705.793945 
	C537.462830,705.835083 539.008423,706.539795 539.095215,708.604004 
	C539.194031,710.956604 537.346924,711.178345 535.638550,711.140015 
	C530.509277,711.024841 525.338501,711.860901 520.261047,710.458923 
	C512.115845,708.209900 506.252014,700.512573 506.879944,692.846619 
	C507.587219,684.211304 513.742798,677.662354 522.447388,676.664368 
	C526.560059,676.192810 530.732788,676.173340 534.880676,676.115784 
	C536.623779,676.091553 538.979492,675.876770 539.022705,678.499512 
	C539.069763,681.344971 536.686646,681.264221 534.676819,681.299194 
	C531.685364,681.351318 528.691040,681.270508 525.700684,681.349182 
	C518.043884,681.550598 513.922241,685.088745 512.329102,693.133667 
z"/>
<path fill="#000000" opacity="1.000000" stroke="none" 
	d="
M435.538147,24.567215 
	C432.437286,25.013773 429.808350,24.531990 427.162598,24.427162 
	C420.393951,24.158976 413.595123,21.285585 406.839447,25.657150 
	C404.550964,27.138002 400.818970,26.465940 397.943268,25.265924 
	C398.069550,22.809923 399.575958,22.320017 401.008545,22.000673 
	C410.720062,19.835899 420.423950,17.625130 430.178833,15.671709 
	C435.161469,14.673926 440.097992,15.701241 444.878357,17.212580 
	C446.624512,17.764650 448.501495,18.691175 448.248138,20.944885 
	C448.008545,23.076435 445.915649,23.091288 444.363281,23.372419 
	C441.591309,23.874411 438.776062,24.137598 435.538147,24.567215 
z"/>
<path fill="#000000" opacity="1.000000" stroke="none" 
	d="
M630.336548,683.206665 
	C630.335938,691.305664 630.380371,698.933228 630.296875,706.559326 
	C630.278931,708.192566 630.965210,710.710083 628.090576,710.587463 
	C625.601135,710.481323 625.731506,708.256348 625.676025,706.421997 
	C625.651001,705.593628 625.659973,704.764099 625.656372,703.935120 
	C625.617981,695.114014 625.618774,695.107910 616.739990,694.224670 
	C614.861877,694.037781 612.868835,693.883667 612.901123,691.362610 
	C612.931213,689.014343 614.897888,689.104431 616.531982,688.951782 
	C617.355103,688.875000 618.188538,688.907776 619.017334,688.893616 
	C625.613586,688.781067 625.487305,688.776245 625.739441,682.367432 
	C625.816711,680.403381 624.253662,676.874146 627.774719,676.863220 
	C631.543213,676.851562 629.924622,680.530518 630.336548,683.206665 
z"/>
<path fill="#000000" opacity="1.000000" stroke="none" 
	d="
M413.382935,703.349976 
	C408.770844,695.234497 411.222687,686.761230 410.820618,678.571777 
	C410.738190,676.893066 412.052734,676.358032 413.569641,676.475586 
	C415.469269,676.622742 416.065186,677.921509 416.085266,679.576416 
	C416.135712,683.733704 416.330566,687.902161 416.107635,692.046692 
	C415.815735,697.473511 417.338623,701.853027 422.122772,704.827454 
	C424.040741,706.019836 424.786804,707.704773 423.699524,710.256897 
	C418.773895,710.488953 416.194672,707.065491 413.382935,703.349976 
z"/>
<path fill="#000000" opacity="1.000000" stroke="none" 
	d="
M445.325439,694.681641 
	C444.229614,703.676025 439.810760,708.988464 432.562164,710.260498 
	C431.123901,708.058044 431.724091,706.225525 433.818909,704.903259 
	C438.763794,701.782104 440.172974,697.192078 439.892670,691.650513 
	C439.691864,687.680420 439.853821,683.690796 439.890228,679.710266 
	C439.907227,677.850220 440.562042,676.411194 442.715454,676.387939 
	C445.034668,676.362915 445.300385,678.000854 445.304016,679.789429 
	C445.313751,684.599915 445.322205,689.410400 445.325439,694.681641 
z"/>
<path fill="#000000" opacity="1.000000" stroke="none" 
	d="
M604.334473,691.010742 
	C604.327515,696.829834 604.349426,702.151978 604.296814,707.473389 
	C604.282288,708.931396 604.405640,710.745300 602.182861,710.666443 
	C600.308716,710.600098 599.725464,709.191345 599.719543,707.535706 
	C599.686035,698.222717 599.660950,688.909729 599.668640,679.596741 
	C599.669739,678.280273 599.632812,676.755066 601.554443,676.693909 
	C603.445312,676.633667 604.233032,677.809204 604.259888,679.538757 
	C604.316772,683.196533 604.313782,686.855225 604.334473,691.010742 
z"/>
<path fill="#000000" opacity="1.000000" stroke="none" 
	d="
M238.016388,681.337891 
	C234.202972,681.305298 230.884293,681.321960 227.569244,681.219849 
	C225.894608,681.168335 224.610718,680.359375 224.686615,678.502075 
	C224.762482,676.645691 226.325119,676.671204 227.641495,676.654114 
	C235.602676,676.550964 243.564285,676.456238 251.525970,676.431885 
	C253.260529,676.426636 255.007431,676.882263 255.056473,679.071228 
	C255.113907,681.634521 253.012009,681.251770 251.452576,681.281799 
	C247.140503,681.364868 242.826111,681.327637 238.016388,681.337891 
z"/>
<path fill="#000000" opacity="1.000000" stroke="none" 
	d="
M242.337158,696.179993 
	C242.319229,700.450745 242.319778,704.247925 242.270935,708.044434 
	C242.255310,709.258911 241.932999,710.487671 240.499680,710.606812 
	C238.986038,710.732483 237.844070,709.843872 237.812515,708.317383 
	C237.696548,702.710632 237.709869,697.100830 237.720825,691.492310 
	C237.722946,690.405579 238.295364,689.529968 239.461212,689.469910 
	C240.712936,689.405457 241.833679,689.956787 242.061523,691.271973 
	C242.312805,692.722412 242.257980,694.225769 242.337158,696.179993 
z"/>
</svg>